#!OML:ASF H:\ManfredETheater\Project 1\Capture day 1\Session 1\subject.ASF
:FULLY-SPECIFIED
:DEGREES
216
root -2.4677 14.4054 -30.8045 196.54 -56.2372 -185.418
lowerback 27.7521 -4.78964 0.724875
upperback 2.62609 -6.22004 1.30822
thorax -12.3405 -2.99208 3.43691
lowerneck -7.50837 -14.463 -12.7811
upperneck 0.723189 -19.4141 18.9568
head 4.62685 -9.31651 6.16183
rclavicle 1.0312e-014 -5.37961e-014
rhumerus -24.4012 -7.73621 -51.0615
rradius 75.3732
rwrist 1.28184
rhand -30.0614 -12.2676
rfingers 7.12502
rthumb -3.37676 -42.2206
lclavicle 1.0312e-014 -5.37961e-014
lhumerus -22.9134 -2.57012 88.7326
lradius 48.7277
lwrist -24.5232
lhand -28.9322 3.45429
lfingers 7.12502
lthumb -2.2862 33.4218
rfemur -76.8849 -19.9725 39.883
rtibia 90.2638
rfoot -20.8278 0.777777
rtoes -2.6645
lfemur -41.396 18.7571 -24.6911
ltibia 119.008
lfoot 13.9958 -23.0712
ltoes 14.9424
217
root -2.43156 14.5611 -30.991 196.786 -56.1738 -185.915
lowerback 27.4931 -4.88001 0.498123
upperback 2.58431 -6.41569 1.20398
thorax -12.2342 -3.07384 3.49536
lowerneck -7.50641 -14.4075 -12.6099
upperneck 0.592712 -19.3476 18.9771
head 4.56298 -9.29195 6.15763
rclavicle -7.60413e-014 1.38155e-014
rhumerus -25.8332 -6.84715 -52.3843
rradius 75.4285
rwrist 1.6594
rhand -30.1448 -12.2319
rfingers 7.12502
rthumb -3.4573 -42.1836
lclavicle -7.60413e-014 1.38155e-014
lhumerus -22.706 -2.54404 88.2859
lradius 49.6013
lwrist -24.1442
lhand -29.1049 3.68058
lfingers 7.12502
lthumb -2.45306 33.6462
rfemur -75.3687 -20.0681 40.0176
rtibia 88.9128
rfoot -20.4638 0.942394
rtoes -1.87893
lfemur -43.4375 18.386 -25.276
ltibia 120.511
lfoot 10.9733 -20.2635
ltoes 14.8222
218
root -2.39182 14.7191 -31.1765 196.884 -56.0941 -186.241
lowerback 27.2585 -4.97172 0.286559
upperback 2.56432 -6.60651 1.12563
thorax -12.1128 -3.15551 3.57248
lowerneck -7.51425 -14.3322 -12.4079
upperneck 0.45624 -19.2571 19.0048
head 4.49336 -9.25593 6.15439
rclavicle -6.58443e-014 2.33572e-015
rhumerus -27.1664 -6.06441 -53.8352
rradius 75.3499
rwrist 1.91567
rhand -30.165 -12.1676
rfingers 7.12502
rthumb -3.47678 -42.119
lclavicle -6.58443e-014 2.33572e-015
lhumerus -22.5069 -2.44828 87.7995
lradius 50.469
lwrist -23.5902
lhand -29.3461 3.96575
lfingers 7.12502
lthumb -2.68594 33.9286
rfemur -73.8673 -20.1691 40.229
rtibia 87.5254
rfoot -19.8872 1.29592
rtoes -1.15514
lfemur -45.5273 17.8271 -25.775
ltibia 121.813
lfoot 8.1274 -16.8051
ltoes 14.7857
219
root -2.34931 14.8806 -31.3601 196.807 -55.971 -186.354
lowerback 27.0535 -5.06005 0.113554
upperback 2.5611 -6.77871 1.07789
thorax -11.9876 -3.23127 3.65645
lowerneck -7.54481 -14.2328 -12.171
upperneck 0.33265 -19.1356 19.0143
head 4.42134 -9.20399 6.14344
rclavicle -3.58931e-014 2.21396e-014
rhumerus -28.3586 -5.44274 -55.401
rradius 75.0964
rwrist 2.05149
rhand -30.0602 -12.0757
rfingers 7.12502
rthumb -3.37558 -42.0288
lclavicle -3.58931e-014 2.21396e-014
lhumerus -22.3156 -2.27505 87.2777
lradius 51.2992
lwrist -22.9652
lhand -29.6304 4.28023
lfingers 7.12502
lthumb -2.96051 34.2394
rfemur -72.3817 -20.2546 40.5233
rtibia 86.1054
rfoot -19.0581 1.87834
rtoes -0.447912
lfemur -47.6365 17.1223 -26.135
ltibia 122.871
lfoot 5.58863 -12.8106
ltoes 15.0046
220
root -2.30466 15.0463 -31.5408 196.533 -55.7848 -186.225
lowerback 26.8966 -5.13924 0.000269695
upperback 2.56713 -6.9178 1.06657
thorax -11.8798 -3.29426 3.73962
lowerneck -7.60098 -14.1132 -11.9188
upperneck 0.230355 -18.9884 19.0135
head 4.35367 -9.1378 6.12852
rclavicle -6.06045e-014 -1.51573e-014
rhumerus -29.3789 -5.03187 -57.0472
rradius 74.6366
rwrist 2.07777
rhand -29.8083 -11.9603
rfingers 7.12502
rthumb -3.13236 -41.917
lclavicle -6.06045e-014 -1.51573e-014
lhumerus -22.1396 -2.03359 86.7299
lradius 52.0738
lwrist -22.3339
lhand -29.9391 4.56273
lfingers 7.12502
lthumb -3.25863 34.5176
rfemur -70.9197 -20.3232 40.9061
rtibia 84.6653
rfoot -17.9283 2.72707
rtoes 0.248366
lfemur -49.732 16.2748 -26.3041
ltibia 123.651
lfoot 3.41468 -8.43802
ltoes 15.6815
221
root -2.25872 15.2167 -31.7173 196.071 -55.5122 -185.849
lowerback 26.7882 -5.20782 -0.0354712
upperback 2.57666 -7.0166 1.09308
thorax -11.799 -3.34126 3.81206
lowerneck -7.69693 -13.9714 -11.6535
upperneck 0.164193 -18.8112 18.9844
head 4.29474 -9.05406 6.10382
rclavicle 3.37934e-015 -6.75868e-015
rhumerus -30.194 -4.85665 -58.7432
rradius 73.9485
rwrist 2.0208
rhand -29.4165 -11.8439
rfingers 7.12502
rthumb -2.75399 -41.8059
lclavicle 3.37934e-015 -6.75868e-015
lhumerus -21.9764 -1.71316 86.1622
lradius 52.7598
lwrist -21.7583
lhand -30.2574 4.73721
lfingers 7.12502
lthumb -3.56605 34.6871
rfemur -69.504 -20.3696 41.3646
rtibia 83.2247
rfoot -16.4371 3.88653
rtoes 1.08341
lfemur -51.7927 15.2999 -26.2598
ltibia 124.123
lfoot 1.55479 -3.92915
ltoes 16.934
222
root -2.2121 15.3924 -31.8892 195.447 -55.1373 -185.255
lowerback 26.7347 -5.25808 -0.00426957
upperback 2.58562 -7.06802 1.16116
thorax -11.7522 -3.36788 3.88288
lowerneck -7.83469 -13.8098 -11.3813
upperneck 0.134904 -18.6059 18.9188
head 4.2452 -8.95339 6.06725
rclavicle 9.03973e-014 -8.02096e-014
rhumerus -30.7843 -4.91797 -60.4435
rradius 73.0217
rwrist 1.90961
rhand -28.9265 -11.7471
rfingers 7.12502
rthumb -2.28075 -41.7147
lclavicle 9.03973e-014 -8.02096e-014
lhumerus -21.8326 -1.32138 85.5893
lradius 53.3461
lwrist -21.268
lhand -30.5709 4.76812
lfingers 7.12502
lthumb -3.86875 34.7127
rfemur -68.1438 -20.3955 41.8671
rtibia 81.803
rfoot -14.5244 5.36916
rtoes 2.11748
lfemur -53.7792 14.2207 -25.9795
ltibia 124.255
lfoot -0.105796 0.461782
ltoes 18.5545
223
root -2.16573 15.5724 -32.056 194.682 -54.643 -184.46
lowerback 26.7373 -5.28421 0.0993683
upperback 2.59122 -7.06285 1.27189
thorax -11.7443 -3.36983 3.94771
lowerneck -8.0218 -13.6313 -11.0973
upperneck 0.144051 -18.3754 18.8047
head 4.20561 -8.83684 6.01353
rclavicle 1.21308e-013 1.95803e-014
rhumerus -31.1451 -5.19904 -62.1085
rradius 71.8596
rwrist 1.77143
rhand -28.4047 -11.6941
rfingers 7.12502
rthumb -1.77681 -41.6664
lclavicle 1.21308e-013 1.95803e-014
lhumerus -21.7154 -0.872384 85.0264
lradius 53.829
lwrist -20.8796
lhand -30.8651 4.66959
lfingers 7.12502
lthumb -4.1529 34.6089
rfemur -66.855 -20.4036 42.3883
rtibia 80.4185
rfoot -12.1187 7.17344
rtoes 3.40176
lfemur -55.6602 13.0663 -25.4383
ltibia 124.04
lfoot -1.70434 4.48886
ltoes 20.4742
224
root -2.12026 15.7554 -32.2166 193.832 -54.0151 -183.507
lowerback 26.7765 -5.28004 0.267042
upperback 2.59146 -6.9954 1.42587
thorax -11.7667 -3.34441 4.00808
lowerneck -8.24574 -13.4416 -10.8341
upperneck 0.175379 -18.1262 18.6713
head 4.17664 -8.70839 5.95624
rclavicle -5.20816e-014 4.67144e-015
rhumerus -31.2715 -5.66602 -63.704
rradius 70.4726
rwrist 1.61493
rhand -27.9252 -11.6939
rfingers 7.12502
rthumb -1.31365 -41.6696
lclavicle -5.20816e-014 4.67144e-015
lhumerus -21.6311 -0.38057 84.4922
lradius 54.2244
lwrist -20.578
lhand -31.125 4.489
lfingers 7.12502
lthumb -4.40382 34.4232
rfemur -65.6627 -20.3774 42.8895
rtibia 79.0834
rfoot -9.15633 9.22424
rtoes 4.85305
lfemur -57.4359 11.8657 -24.652
ltibia 123.479
lfoot -3.3173 7.95449
ltoes 22.3467
225
root -2.07673 15.94 -32.3712 192.909 -53.2538 -182.423
lowerback 26.8564 -5.24172 0.497872
upperback 2.59332 -6.86168 1.62196
thorax -11.8136 -3.29057 4.0617
lowerneck -8.50259 -13.2435 -10.5851
upperneck 0.219014 -17.8619 18.5183
head 4.1547 -8.57053 5.89441
rclavicle 2.9122e-014 2.5842e-014
rhumerus -31.1667 -6.27163 -65.2055
rradius 68.8678
rwrist 1.4536
rhand -27.5359 -11.7719
rfingers 7.12502
rthumb -0.937686 -41.7496
lclavicle 2.9122e-014 2.5842e-014
lhumerus -21.5822 0.137328 83.9992
lradius 54.535
lwrist -20.3326
lhand -31.3747 4.23312
lfingers 7.12502
lthumb -4.64494 34.1622
rfemur -64.5467 -20.323 43.3343
rtibia 77.8058
rfoot -5.59383 11.4399
rtoes 6.40223
lfemur -59.0632 10.6592 -23.6153
ltibia 122.58
lfoot -4.93652 10.7381
ltoes 23.8165
226
root -2.03631 16.1218 -32.5191 191.991 -52.3489 -181.278
lowerback 26.9457 -5.16499 0.77552
upperback 2.59547 -6.66227 1.84803
thorax -11.8697 -3.20878 4.10066
lowerneck -8.78793 -13.0416 -10.3435
upperneck 0.267063 -17.589 18.3475
head 4.13732 -8.42708 5.82728
rclavicle 2.49475e-014 -3.77691e-014
rhumerus -30.8354 -6.96521 -66.6004
rradius 67.0534
rwrist 1.27623
rhand -27.2604 -11.9196
rfingers 7.12502
rthumb -0.671555 -41.8983
lclavicle 2.49475e-014 -3.77691e-014
lhumerus -21.5732 0.658751 83.5516
lradius 54.7679
lwrist -20.0904
lhand -31.6445 3.91019
lfingers 7.12502
lthumb -4.9055 33.8334
rfemur -63.538 -20.2222 43.6794
rtibia 76.6063
rfoot -1.56825 13.6518
rtoes 7.30567
lfemur -60.5623 9.46421 -22.3841
ltibia 121.38
lfoot -6.51238 12.8216
ltoes 24.7823
227
root -1.99944 16.2971 -32.6612 191.094 -51.3037 -180.084
lowerback 27.024 -5.04542 1.09553
upperback 2.60301 -6.39362 2.10509
thorax -11.9174 -3.09827 4.12438
lowerneck -9.08109 -12.8368 -10.1151
upperneck 0.300709 -17.3084 18.1705
head 4.11745 -8.28029 5.7608
rclavicle -6.97734e-014 5.725e-014
rhumerus -30.2796 -7.70428 -67.8817
rradius 65.0309
rwrist 1.05111
rhand -27.0882 -12.1145
rfingers 7.12502
rthumb -0.505315 -42.0936
lclavicle -6.97734e-014 5.725e-014
lhumerus -21.6166 1.14102 83.1564
lradius 54.9683
lwrist -19.8399
lhand -31.8855 3.72878
lfingers 7.12502
lthumb -5.13821 33.6465
rfemur -62.6359 -20.0613 43.9283
rtibia 75.5087
rfoot 2.61712 15.7178
rtoes 6.73763
lfemur -61.9453 8.3518 -20.9756
ltibia 119.917
lfoot -7.94143 14.2421
ltoes 25.0953
228
root -1.96705 16.4621 -32.798 190.266 -50.1296 -178.903
lowerback 27.0756 -4.88539 1.44232
upperback 2.6184 -6.06593 2.3782
thorax -11.945 -2.96379 4.12629
lowerneck -9.37108 -12.6304 -9.88434
upperneck 0.31418 -17.0233 17.98
head 4.08989 -8.13263 5.69097
rclavicle -4.23411e-014 3.07122e-014
rhumerus -29.5063 -8.45266 -69.0525
rradius 62.805
rwrist 0.739442
rhand -26.9655 -12.3475
rfingers 7.12502
rthumb -0.386742 -42.3269
lclavicle -4.23411e-014 3.07122e-014
lhumerus -21.7141 1.57301 82.8052
lradius 55.1282
lwrist -19.5248
lhand -32.1634 3.58453
lfingers 7.12502
lthumb -5.4065 33.4956
rfemur -61.856 -19.8548 44.0657
rtibia 74.559
rfoot 6.61665 17.6158
rtoes 4.66372
lfemur -63.2141 7.32658 -19.445
ltibia 118.231
lfoot -9.1901 15.0954
ltoes 24.8266
229
root -1.93995 16.6144 -32.9306 189.516 -48.8362 -177.761
lowerback 27.0978 -4.68779 1.81236
upperback 2.64599 -5.6863 2.65769
thorax -11.946 -2.809 4.0993
lowerneck -9.64038 -12.425 -9.65318
upperneck 0.299719 -16.7365 17.7744
head 4.04993 -7.98677 5.61834
rclavicle 4.24405e-014 -2.78299e-014
rhumerus -28.5358 -9.17925 -70.1198
rradius 60.3946
rwrist 0.291915
rhand -26.8201 -12.609
rfingers 7.12502
rthumb -0.246327 -42.5886
lclavicle 4.24405e-014 -2.78299e-014
lhumerus -21.8707 1.93954 82.4916
lradius 55.2528
lwrist -19.1371
lhand -32.4826 3.48425
lfingers 7.12502
lthumb -5.71468 33.3872
rfemur -61.1864 -19.6155 44.0951
rtibia 73.8078
rfoot 10.1186 19.3272
rtoes 1.97204
lfemur -64.3437 6.44671 -17.8236
ltibia 116.358
lfoot -10.3039 15.4174
ltoes 24.0172
230
root -1.91813 16.7527 -33.0603 188.869 -47.4464 -176.719
lowerback 27.1104 -4.45678 2.18617
upperback 2.68443 -5.26697 2.93085
thorax -11.9306 -2.63823 4.04652
lowerneck -9.89659 -12.2262 -9.42998
upperneck 0.267991 -16.4544 17.5452
head 4.00271 -7.84497 5.54
rclavicle 3.67752e-015 -3.72721e-014
rhumerus -27.3948 -9.86037 -71.0794
rradius 57.8269
rwrist -0.333816
rhand -26.5849 -12.9005
rfingers 7.12502
rthumb -0.0191669 -42.8803
lclavicle 3.67752e-015 -3.72721e-014
lhumerus -22.0867 2.21806 82.2133
lradius 55.3522
lwrist -18.6842
lhand -32.8224 3.44783
lfingers 7.12502
lthumb -6.04274 33.3417
rfemur -60.6291 -19.3774 43.9981
rtibia 73.3177
rfoot 12.8719 20.797
rtoes -0.943413
lfemur -65.315 5.708 -16.1739
ltibia 114.317
lfoot -11.2899 15.3005
ltoes 22.8505
